<?xml version="1.0" standalone="no"?>
<svg xmlns:xlink="http://www.w3.org/1999/xlink" xmlns="http://www.w3.org/2000/svg">
	<g id="expandirAbajo" transform='matrix(0.5,0,0,0.5,10,10)'>
		<path d="M10,0 H90 C95,0 100,5 100,10 V90 C100,95 95,100 90,100 H10 C5,100 0,95 0,90 V10 C0,5 5,0 10,0 Z" fill="rgb(235,235,235)"/>
		<path d="M25,25 H75 L50,60 L25,25 Z M25,40 H75 L50,75 L25,40 Z" fill="rgb(255,255,255)" />
	</g>
	<g id="pluma" transform='matrix(0.5,0,0,0.5,70,10)'>
		<path d="M10,0 H90 C95,0 100,5 100,10 V90 C100,95 95,100 90,100 H10 C5,100 0,95 0,90 V10 C0,5 5,0 10,0 Z" fill="rgb(235,235,235)"/>
		<path d="M20,80 L30,40 L45,40 L60,20 L80,40 L60,55 L60,70 L20,80 M27.5,72.5 L55,65 L55,50 L50,45 L35,45 L27.5,72.5 Z M27.5,72.5 L30,65 L47.5,52.5 L35,70 Z M40,55 C40,52.5 42.5,50 45,50 C47.5,50 50,52.5 50,52.5 C50,57.5 47.5,60 45,60 C42.5,60 40,57.5 40,55 Z" fill="rgb(255,255,255)" />
	</g>
	<g id="plumaEliminar" transform='matrix(0.5,0,0,0.5,130,10)'>
		<path d="M10,0 H90 C95,0 100,5 100,10 V90 C100,95 95,100 90,100 H10 C5,100 0,95 0,90 V10 C0,5 5,0 10,0 Z" fill="rgb(235,235,235)"/>
		<path d="M20,80 L30,40 L45,40 L60,20 L80,40 L60,55 L60,70 L20,80 M27.5,72.5 L55,65 L55,50 L50,45 L35,45 L27.5,72.5 Z M27.5,72.5 L30,65 L47.5,52.5 L35,70 Z M40,55 C40,52.5 42.5,50 45,50 C47.5,50 50,52.5 50,52.5 C50,57.5 47.5,60 45,60 C42.5,60 40,57.5 40,55 Z M55,65 H80 V70 H55 Z" fill="rgb(255,255,255)" />
	</g>
	<g id="plumaAgregar" transform='matrix(0.5,0,0,0.5,190,10)'>
		<path d="M10,0 H90 C95,0 100,5 100,10 V90 C100,95 95,100 90,100 H10 C5,100 0,95 0,90 V10 C0,5 5,0 10,0 Z" fill="rgb(235,235,235)"/>
		<path d="M20,80 L30,40 L45,40 L60,20 L80,40 L60,55 L60,70 L20,80 M27.5,72.5 L55,65 L55,50 L50,45 L35,45 L27.5,72.5 Z M27.5,72.5 L30,65 L47.5,52.5 L35,70 Z M40,55 C40,52.5 42.5,50 45,50 C47.5,50 50,52.5 50,52.5 C50,57.5 47.5,60 45,60 C42.5,60 40,57.5 40,55 Z M55,65 H80 V70 H55 Z M65,80 V55 H70 V80 Z" fill="rgb(255,255,255)" />
	</g>
	<g id="seleccion" transform='matrix(0.5,0,0,0.5,250,10)'>
		<path d="M10,0 H90 C95,0 100,5 100,10 V90 C100,95 95,100 90,100 H10 C5,100 0,95 0,90 V10 C0,5 5,0 10,0 Z" fill="rgb(235,235,235)"/>
		<path d="M25,25 L65,40 L49,55 L68,75 L75,68 L55,49 L40,65 Z" fill="rgb(255,255,255)" />
	</g>
	<g id="seleccionDirecta" transform='matrix(0.5,0,0,0.5,310,10)'>
		<path d="M10,0 H90 C95,0 100,5 100,10 V90 C100,95 95,100 90,100 H10 C5,100 0,95 0,90 V10 C0,5 5,0 10,0 Z" fill="rgb(235,235,235)"/>
		<path d="M20,25 L60,40 L50,49 L70,68 L63,75 L44,55 L35,65 Z M34,30 L30,20 L70,35 L60,44 L80,63 L69,74 L66,71 L74,63 L54,44 L62,37 L38,28 L41,33 Z" fill="rgb(255,255,255)" />
	</g>
</svg>