<?xml version="1.0" standalone="no"?>
<svg xmlns:xlink="http://www.w3.org/1999/xlink" xmlns="http://www.w3.org/2000/svg">
	<g transform='matrix(10,0,0,10,50,50)'>
		<path id="fd1" d="M0,0 H10 V10 H0 V0 Z" fill="rgb(200,200,200)" style="display:none"/>
		<path id="fd1" d="M1,0 H9 C9.5,0 10,0.5 10,1 V9 C10,9.5 9.5,10 9,10 H1 C0.5,10 0,9.5 0,9 V1 C0,0.5 0.5,0 1,0 Z" fill="rgb(200,200,200)" style="display:block"/>
		<path d="M2,8 L3,4 L4.5,4 L6,2 L8,4 L6,5.5 L6,7 L2,8 M2.75,7.25 L5.5,6.5 L5.5,5 L5,4.5 L3.5,4.5 L2.75,7.25 Z" fill="rgb(235,235,235)" /> 
		<!--<path d="M2,8 L3,4 L4.5,4 L6,2 L8,4 L6,5.5 L6,7 L2,8 Z" fill="rgb(235,235,235)" />
		<path d="M2.75,7.25 L3.5,4.5 L5,4.5 L5.5,5 L5.5,6.5 L2.75,7.25 Z" fill="rgb(200,200,200)" />-->
	</g>
</svg>