<svg xmlns="http://www.w3.org/2000/svg" xmlns:xlink="http://www.w3.org/1999/xlink" display="none">
	<symbol viewBox="0 0 24 24" id="activity">
		<path d="M17.4 5.4c-.7.2-1.3.4-1.8.6-.3.2-.7.5-1.3.8.1.9.1 1.6 0 2.2 0 .6-.1 1.5-.3 2.6 1.3.9 2.2 1.6 2.8 2.1l.4.4 2-.9c.3-.6.6-1.5.7-2.5.2-.9.2-1.9.1-2.9l-2.6-2.4zm-.7-1.2l-.1-.2c-1.3-.8-2.9-1.2-4.6-1.2-.9 0-1.8.1-2.6.3v1.3c.8.1 1.4.2 2 .4.5.2 1.2.5 2 .9.7-.4 1.2-.7 1.6-.9.5-.2 1-.4 1.7-.6zm-6.5 15.6c1.7-.2 2.8-.3 3.4-.5.7-.1 1.3-.3 1.8-.5.4-.9.6-1.6.7-2.1.1-.4.2-.9.3-1.5-.2-.2-.3-.3-.5-.4-.5-.5-1.5-1.2-2.9-2.2-.6.3-1.2.6-1.7.7-.5.2-1.3.3-2.4.4-.4.9-.7 1.6-.8 2.1-.1.5-.2 1.2-.3 2 .4.5.7.9 1 1.1.3.2.8.5 1.4.9zm-5.8-2.6h2.1c.1-.7.2-1.3.3-1.7.1-.6.3-1.3.7-2.1-.5-.6-1.1-1.3-1.4-1.7-.2-.4-.6-.8-1-1.8-.2 0-.4.1-.6.1-.5.2-1.1.5-1.7.9V12c0 2 .6 3.8 1.6 5.2zm16.5-2.8c.2-.7.3-1.5.3-2.4v-.6c-.1.8-.3 1.4-.6 2 .1.1.2.3.2.4.1.2.1.4.1.6zm-16-5.9v-.1c.7-1 1.2-1.8 1.6-2.2.3-.4.8-.9 1.5-1.5v-1c-2.2 1.1-4 3-4.8 5.4.3-.2.6-.3.9-.4.3-.1.5-.1.8-.2zm12.2 11.2c-.7.3-1.8.6-3.1 1-.7.1-1.9.3-3.5.5.5.1 1 .1 1.5.1 1.9 0 3.7-.6 5.1-1.6zm6-7.7c0 6.2-5 11.2-11.1 11.2S.9 18.2.9 12 5.9.9 12 .9s11.1 5 11.1 11.1z"/>
	</symbol>
	<symbol viewBox="0 0 24 24" id="ad_set">
		<path d="M10.4 2.4H2.5c-.3 0-.7.3-.7.6v7.4c0 .4.4.7.7.7h7.9c.4 0 .7-.3.7-.7V3c0-.3-.3-.6-.7-.6zM9.2 6.1H3.7V4.2h5.5v1.9zm12.3-3.7h-7.9c-.4 0-.7.3-.7.6v7.4c0 .4.3.7.7.7h7.9c.3 0 .7-.3.7-.7V3c0-.3-.4-.6-.7-.6zm-1.2 3.7h-5.5V4.2h5.5v1.9zM10.4 12.9H2.5c-.3 0-.7.3-.7.7V21c0 .3.4.6.7.6h7.9c.4 0 .7-.3.7-.6v-7.4c0-.4-.3-.7-.7-.7zm-1.2 3.8H3.7v-1.9h5.5v1.9zm12.3-3.8h-7.9c-.4 0-.7.3-.7.7V21c0 .3.3.6.7.6h7.9c.3 0 .7-.3.7-.6v-7.4c0-.4-.4-.7-.7-.7zm-1.2 3.8h-5.5v-1.9h5.5v1.9z"/>
	</symbol>
	<symbol viewBox="0 0 24 24" id="add">
		<path d="M13.8 13.4h7.7c.3 0 .7-.3.7-.7v-1.4c0-.4-.4-.7-.7-.7h-7.7c-.2 0-.4-.2-.4-.4V2.5c0-.3-.3-.7-.7-.7h-1.4c-.4 0-.7.4-.7.7v7.7c0 .2-.2.4-.4.4H2.5c-.3 0-.7.3-.7.7v1.4c0 .4.4.7.7.7h7.7c.2 0 .4.2.4.4v7.7c0 .3.3.7.7.7h1.4c.4 0 .7-.4.7-.7v-7.7c0-.2.2-.4.4-.4z"/>
	</symbol>
	<symbol viewBox="0 0 24 24" id="adduser">
		<path d="M10.1 17.1c0-1.3.4-2.7 1.1-3.8.8-1.4 1.6-1.9 2.3-3 1.2-1.7 1.4-4.1.7-6-.8-1.9-2.5-3-4.6-2.9S6 2.7 5.3 4.6c-.7 2-.4 4.5 1.3 6.1.6.7 1.3 1.7.9 2.6-.3 1-1.4 1.4-2.2 1.7-1.8.8-4 1.9-4.3 4.1-.4 1.7.8 3.5 2.7 3.5h7.8c.4 0 .6-.4.4-.7-1.1-1.4-1.8-3.1-1.8-4.8zm7.4-5.6c-3.1 0-5.5 2.5-5.5 5.6s2.4 5.5 5.5 5.5 5.5-2.5 5.5-5.5-2.5-5.6-5.5-5.6zm2.8 6c0 .3-.2.5-.5.5h-1.3v1.4c0 .3-.3.4-.5.4h-1c-.2 0-.4-.1-.4-.4V18h-1.4c-.3 0-.4-.2-.4-.5v-.9c0-.3.1-.4.4-.4h1.4v-1.4c0-.3.2-.5.4-.5h1c.2 0 .5.2.5.5v1.4h1.3c.3 0 .5.1.5.4v.9z"/>
	</symbol>
	<symbol viewBox="0 0 24 24" id="anchor">
		<title/>
		<path d="M22.2 16.5L21 11.8c-.1-.5-.7-.7-1.1-.4l-3.6 3.3c-.4.3-.2 1 .3 1.1l1.5.5c-.1.3-.2.6-.4.9-.9 1.4-2.2 2.3-4.3 2.6V8.2c1.2-.5 2-1.7 2-3.1 0-1.8-1.5-3.3-3.4-3.3-1.8 0-3.3 1.5-3.3 3.3 0 1.4.8 2.6 2 3.1v11.6c-2.1-.3-3.5-1.2-4.3-2.6-.2-.3-.3-.6-.4-.9l1.5-.5c.5-.1.6-.8.3-1.1l-3.6-3.3c-.5-.3-1.1-.1-1.2.4l-1.2 4.7c-.1.5.4.9.9.8l1.2-.4c.2.5.4 1 .7 1.5C5.9 20.6 8.4 22 12 22s6-1.4 7.3-3.6c.3-.5.5-1 .7-1.5l1.2.4c.6.1 1-.3 1-.8zM12 6.6c-.7 0-1.3-.6-1.3-1.4s.6-1.3 1.3-1.3 1.3.6 1.3 1.3-.6 1.4-1.3 1.4z"/>
	</symbol>
	<symbol viewBox="0 0 24 24" id="animal_and_nature">
		<path d="M8 2.1c1.3-.4 2.6-.7 4-.7s2.7.3 4 .7c.4-.7 1.1-1.2 2-1.2 1.3 0 2.3 1.1 2.3 2.3 0 .4-.1.8-.2 1.1.5.5.9 2 1.1 4.5.2 1.4 1.4 5.5 1.4 6.4 0 3.7-3.5 6.3-10.6 7.9-7.1-1.5-10.6-4.2-10.6-7.9 0-.9 1.1-5 1.4-6.4.2-2.5.6-4 1.2-4.5-.2-.3-.3-.7-.3-1.1C3.7 2 4.7.9 6 .9c.9 0 1.6.5 2 1.2zm1.7 8.4c-.8.2-1.4 1-1.3 1.9l.2 2.8c.1 1.8 1.6 3.3 3.4 3.3 1.8 0 3.3-1.5 3.4-3.3l.2-2.8c.1-.8-.5-1.6-1.3-1.9-.8-.2-1.6-.3-2.5-.3-.7 0-1.4.1-2.1.3zm6.9.1c.8 0 1.4-.8 1.4-1.8s-.6-1.9-1.4-1.9-1.4.8-1.4 1.9.7 1.8 1.4 1.8zm-9.2 0c.7 0 1.4-.8 1.4-1.8s-.7-1.9-1.4-1.9S6 7.7 6 8.8s.6 1.8 1.4 1.8zm6 2.2c-.8.9-2.1.9-2.9 0-.8-1-.1-1.7 1.5-1.7s2.2.8 1.4 1.7z"/>
	</symbol>
	<symbol viewBox="0 0 24 24" id="announcement">
		<path d="M10.5 21l-.6-.5c-.7-.5-.7-1.4-.7-1.9v-1.3c0-.4-.3-.7-.7-.7H5.8c-.4 0-.7.3-.7.7v3.6c0 1.2.7 2.2 1.9 2.2h2.2c1.4 0 1.5-.9 1.5-.9s.2-.9-.2-1.2zM20.8 8.3V2c0-1.1-1.4-1.4-2.2-.7l-4.1 3.9c-.6.5-1.4.8-2.3.8h-7C2.8 6 .9 8.1.9 10.5v.1c0 2.4 1.9 4.2 4.3 4.2h7c.9 0 1.7.3 2.4.9l4 4c.8.7 2.2.4 2.2-.7v-6.3c1.4 0 2.2-.9 2.2-2.2 0-1.2-.8-2.2-2.2-2.2z"/>
	</symbol>
	<symbol viewBox="0 0 24 24" id="answer">
		<path d="M12 1.8C5.9 1.8.9 6.4.9 12c0 1.8.5 3.5 1.4 5 .1.2.1.4.1.6l-1 3.2c-.2.6.4 1.1 1 .9l3.2-1.1c.2-.1.4-.1.6.1 1.7.9 3.7 1.5 5.8 1.5 6.2 0 11.1-4.5 11.1-10.2C23 6.4 18.1 1.8 12 1.8zm5.3 7.9l-5.6 5.6c-.3.2-.5.3-.8.3-.3 0-.6-.1-.8-.3l-2.7-2.7c-.2-.2-.2-.6 0-.7l.8-.8c.2-.2.5-.2.8 0l1.9 2 4.8-4.8c.3-.3.6-.3.8 0l.8.7c.2.2.2.6 0 .7z"/>
	</symbol>
	<symbol viewBox="0 0 24 24" id="answered_twice">
		<path d="M8.1 5.3C4 5.3.7 8.3.7 12c0 1.2.4 2.4 1 3.4 0 .1.1.2 0 .4L1 17.9c-.1.4.2.7.7.6l2.1-.7c.2-.1.4-.1.4 0 1.2.7 2.5 1 3.9 1 4.1 0 7.4-3 7.4-6.8s-3.3-6.7-7.4-6.7zm3.6 5.2l-3.8 3.7c-.1.2-.3.2-.5.2s-.3 0-.5-.2l-1.8-1.8c-.2-.1-.2-.4 0-.5l.5-.5c.1-.1.4-.1.5 0l1.3 1.3 3.2-3.2c.2-.1.4-.1.5 0l.5.5c.2.2.2.4.1.5zm4.1-5.2h-1.9c2.2 1.5 3.8 4 3.8 6.7 0 2.8-1.7 5.4-3.8 6.8h1.9c4.1 0 7.4-3 7.4-6.8 0-3.7-3.3-6.7-7.4-6.7z"/>
	</symbol>
	<symbol viewBox="0 0 24 24" id="apex">
		<path d="M22.4 18.5H9.9c-.3 0-.7.3-.7.7v1.3c0 .4.4.7.7.7h12.5c.4 0 .7-.3.7-.7v-1.3c0-.4-.3-.7-.7-.7zm-10.7-8.4L2.8 2.9c-.3-.2-.7-.2-1 .1l-.7 1.2c-.3.3-.2.7.1.9l6.4 5.1c.2.2.2.6 0 .7L1.2 16c-.3.2-.4.7-.1 1l.7 1.2c.3.3.7.4 1 .1l8.9-7.1c.4-.3.4-.9 0-1.1z"/>
	</symbol>
	<symbol viewBox="0 0 24 24" id="approval">
		<path d="M20.9 13.5h-4.1c-1.2 0-2.2-1-2.2-2.2.2-3.3 1.7-3.5 1.8-5.6.2-2.2-1.2-4.2-3.4-4.7-2.8-.6-5.4 1.6-5.4 4.4 0 2.4 1.6 2.4 1.8 5.9 0 1.2-1 2.2-2.2 2.2H3.1c-1.2 0-2.2.9-2.2 2.2v1.5c0 .4.3.7.8.7h20.6c.5 0 .8-.3.8-.7v-1.5c0-1.3-1-2.2-2.2-2.2zm0 6.6H3.1c-.4 0-.7.3-.7.7v.1c0 1.2 1 2.2 2.2 2.2h14.8c1.2 0 2.2-1 2.2-2.2v-.1c0-.4-.3-.7-.7-.7z"/>
	</symbol>
	<symbol viewBox="0 0 24 24" id="apps">
		<path d="M6 1.8H3.2c-.8 0-1.4.6-1.4 1.4V6c0 .8.6 1.4 1.4 1.4H6c.8 0 1.4-.6 1.4-1.4V3.2c0-.8-.6-1.4-1.4-1.4zm0 14.8H3.2c-.8 0-1.4.6-1.4 1.4v2.8c0 .8.6 1.4 1.4 1.4H6c.8 0 1.4-.6 1.4-1.4V18c0-.8-.6-1.4-1.4-1.4zm0-7.4H3.2c-.8 0-1.4.6-1.4 1.4v2.8c0 .8.6 1.4 1.4 1.4H6c.8 0 1.4-.6 1.4-1.4v-2.8c0-.8-.6-1.4-1.4-1.4zm7.4-7.4h-2.8c-.8 0-1.4.6-1.4 1.4V6c0 .8.6 1.4 1.4 1.4h2.8c.8 0 1.4-.6 1.4-1.4V3.2c0-.8-.6-1.4-1.4-1.4zm0 14.8h-2.8c-.8 0-1.4.6-1.4 1.4v2.8c0 .8.6 1.4 1.4 1.4h2.8c.8 0 1.4-.6 1.4-1.4V18c0-.8-.6-1.4-1.4-1.4zm0-7.4h-2.8c-.8 0-1.4.6-1.4 1.4v2.8c0 .8.6 1.4 1.4 1.4h2.8c.8 0 1.4-.6 1.4-1.4v-2.8c0-.8-.6-1.4-1.4-1.4zm7.4-7.4H18c-.8 0-1.4.6-1.4 1.4V6c0 .8.6 1.4 1.4 1.4h2.8c.8 0 1.4-.6 1.4-1.4V3.2c0-.8-.6-1.4-1.4-1.4zm0 14.8H18c-.8 0-1.4.6-1.4 1.4v2.8c0 .8.6 1.4 1.4 1.4h2.8c.8 0 1.4-.6 1.4-1.4V18c0-.8-.6-1.4-1.4-1.4zm0-7.4H18c-.8 0-1.4.6-1.4 1.4v2.8c0 .8.6 1.4 1.4 1.4h2.8c.8 0 1.4-.6 1.4-1.4v-2.8c0-.8-.6-1.4-1.4-1.4z"/>
	</symbol>
	<symbol viewBox="0 0 24 24" id="arrowdown">
		<path d="M4.4 14.3c-.3.4-.3.9 0 1.3l7 6.7c.3.4.9.4 1.2 0l7-6.7c.4-.4.4-.9 0-1.3l-1.3-1.2c-.3-.4-.9-.4-1.3 0l-2.1 2.1c-.4.4-1.1.1-1.1-.4V2.3c0-.5-.4-.9-.9-.9h-1.8c-.5 0-.9.5-.9.9v12.5c0 .5-.7.8-1.1.4L7 13.1c-.4-.4-1-.4-1.3 0l-1.3 1.2z"/>
	</symbol>
	<symbol viewBox="0 0 24 24" id="arrowup">
		<path d="M19.1 9.7c.4-.4.4-.9 0-1.3l-6.9-6.7c-.4-.4-.9-.4-1.3 0L4 8.4c-.4.4-.4.9 0 1.3l1.3 1.2c.3.4.9.4 1.3 0l2.1-2.1c.4-.4 1-.1 1 .4v12.5c0 .5.5.9 1 .9h1.8c.5 0 .9-.5.9-.9V9.2c0-.5.7-.8 1-.4l2.2 2.1c.4.4.9.4 1.3 0l1.2-1.2z"/></symbol><symbol viewBox="0 0 24 24" id="attach"><path d="M8.1 16.9c.3.3.7.3 1 0l4.6-4.6c.3-.3.9-.3 1.3 0 .4.4.4 1 0 1.4l-5.7 5.6c-1.2 1.2-3.3 1.2-4.5 0l-.1-.1c-1.2-1.2-1.2-3.3 0-4.5l10-10c1.3-1.3 3.3-1.3 4.6 0 1.3 1.3 1.3 3.3 0 4.6-.2.3-.3.6-.1.9.3.5.5 1 .6 1.6.1.3.6.4.8.2l.7-.7c2.4-2.4 2.4-6.2 0-8.6h-.1C18.9.4 15 .4 12.7 2.7l-10 10c-2.4 2.3-2.4 6.2 0 8.5l.1.1c2.3 2.4 6.1 2.4 8.5 0l5.7-5.7c1.5-1.4 1.4-3.8-.1-5.3-1.5-1.4-3.9-1.3-5.3.1L7.1 15c-.3.2-.3.7 0 1l1 .9z"/>
	</symbol>
	<symbol viewBox="0 0 24 24" id="automate">
		<path d="M12 7.6c-2.4 0-4.4 2-4.4 4.4s2 4.5 4.4 4.5c2.5 0 4.5-2 4.5-4.5s-2-4.4-4.5-4.4zm0 7.7c-1.8 0-3.2-1.5-3.2-3.3 0-1.8 1.4-3.3 3.2-3.3 1.8 0 3.3 1.5 3.3 3.3 0 1.8-1.5 3.3-3.3 3.3zm10.8-.5c.2-.9.3-1.8.3-2.8 0-1-.1-1.9-.3-2.8h-1.3c-.2-.7-.5-1.4-.8-2l.9-.8c-1-1.6-2.3-3-4-4l-.8.9c-.6-.3-1.3-.6-2-.8V1.3c-.9-.2-1.8-.4-2.8-.4-1 0-1.9.2-2.8.4v1.2c-.7.2-1.3.5-1.9.8l-.9-.9c-1.7 1-3 2.4-4 4l.9.9c-.3.6-.6 1.2-.8 1.9H1.3c-.2.9-.4 1.8-.4 2.8s.2 1.9.4 2.8h1.2c.2.7.5 1.4.8 2l-.9.8c1 1.6 2.4 3 4 4l.9-.9c.6.3 1.2.6 1.9.8v1.3c.9.2 1.9.3 2.8.3 1 0 1.9-.1 2.9-.3v-1.3c.7-.2 1.3-.5 1.9-.8l.9.9c1.6-1 3-2.3 3.9-4l-.8-.8c.3-.6.6-1.3.8-2h1.2zm-2.7 3c-.3.4-.7.8-1.1 1.2-.4.4-.8.8-1.2 1.1l-.9-.9c-.9.7-2.1 1.2-3.3 1.4v1.2c-.5.1-1 .1-1.6.1-.6 0-1.1 0-1.6-.1v-1.2c-1.2-.2-2.4-.7-3.3-1.4l-.9.9c-.4-.3-.8-.7-1.2-1.1-.4-.4-.8-.8-1.1-1.2l.9-.9c-.7-.9-1.2-2.1-1.4-3.3H2.2c-.1-.5-.1-1-.1-1.6 0-.6 0-1.1.1-1.6h1.3c.2-1.2.7-2.4 1.3-3.3L4 6.2c.3-.4.7-.8 1-1.2.4-.4.8-.8 1.2-1.1l.9.9c1-.7 2.1-1.2 3.3-1.4V2.2c.5-.1 1.1-.1 1.6-.1.6 0 1.1 0 1.7.1v1.3c1.2.2 2.3.7 3.3 1.3l.9-.8c.4.3.8.6 1.2 1 .3.4.7.8 1 1.2l-.9.9c.7 1 1.2 2.1 1.4 3.3h1.3c.1.5.1 1.1.1 1.6 0 .6 0 1.1-.1 1.7h-1.3c-.2 1.2-.7 2.3-1.4 3.3l.9.8z"/>
	</symbol>
	<symbol viewBox="0 0 24 24" id="back">
		<path d="M22.4 10.6H7.1c-.4 0-.6-.5-.3-.8l4.4-4.4c.3-.3.3-.7 0-1l-1-1c-.3-.3-.7-.3-1 0l-8 8.1c-.3.3-.3.7 0 1l8 8.1c.3.3.7.3 1 0l1-1c.2-.3.2-.7 0-1l-4.5-4.4c-.2-.3-.1-.8.4-.8h15.3c.4 0 .7-.3.7-.7v-1.3c0-.4-.3-.8-.7-.8z"/></symbol><symbol viewBox="0 0 24 24" id="ban"><path d="M12 .9C5.9.9.9 5.9.9 12s5 11.1 11.1 11.1 11.1-5 11.1-11.1S18.1.9 12 .9zM3.7 12c0-4.6 3.7-8.3 8.3-8.3 1.8 0 3.5.5 4.8 1.5L5.2 16.8c-1-1.3-1.5-3-1.5-4.8zm8.3 8.3c-1.8 0-3.5-.5-4.8-1.5L18.8 7.2c1 1.3 1.5 3 1.5 4.8 0 4.6-3.7 8.3-8.3 8.3z"/>
	</symbol>
	<symbol viewBox="0 0 24 24" id="block_visitor">
		<path d="M29.9 8.8V9v-.2z"/><path d="M10.2 17.1c0-1.3.4-2.7 1-3.8.8-1.4 1.7-1.9 2.4-3 1.1-1.7 1.4-4.1.6-6-.7-1.9-2.5-3-4.5-2.9S6 2.7 5.4 4.6c-.8 2-.5 4.5 1.2 6.1.7.7 1.3 1.7 1 2.6-.4 1-1.5 1.4-2.2 1.7-1.8.8-4 1.9-4.4 4.1-.4 1.7.8 3.5 2.7 3.5h7.9c.4 0 .6-.4.4-.7-1.2-1.4-1.8-3.1-1.8-4.8zm11.3-3.9c-2.2-2.2-5.7-2.2-7.9 0s-2.2 5.6 0 7.8 5.7 2.2 7.9 0 2.1-5.7 0-7.8zm-6.6 1.2c1.3-1.2 3.1-1.4 4.5-.5l-5 5.1c-.9-1.5-.7-3.3.5-4.6zm5.3 5.3c-1.3 1.2-3.1 1.4-4.6.6l5.1-5.1c.9 1.4.7 3.3-.5 4.5z"/>
	</symbol>
	<symbol viewBox="0 0 24 24" id="bold">
		<path d="M18.9 8.8c0-2.8-2.2-5.1-4.8-5.1H6.5c-.5 0-1 .4-1 .9v15.2c0 .6.5 1 1 1h7.6c2.6 0 4.8-2.3 4.8-5.1 0-1.3-.5-2.5-1.3-3.5.8-.9 1.3-2.1 1.3-3.4zm-4.8 8.7H8.8v-3.7h5.3c.9 0 1.6.9 1.6 1.9s-.7 1.8-1.6 1.8zm0-6.9H8.8V6.9h5.3c.9 0 1.6.9 1.6 1.9s-.7 1.8-1.6 1.8z"/>
	</symbol>
	<symbol viewBox="0 0 24 24" id="bookmark">
		<path d="M17.2 22.9l-4.6-4.6c-.2-.3-.6-.3-.9 0l-4.9 4.6c-.3.3-.8.1-.8-.3V2.8C6 1.8 6.8.9 7.8.9h8.4c1 0 1.8.9 1.8 1.9v19.8c0 .4-.5.6-.8.3z"/>
	</symbol>
	<symbol viewBox="0 0 24 24" id="breadcrumbs">
		<path d="M3.9 19.4c-.3 0-.5-.2-.5-.5V5c0-.2.2-.4.5-.4h3.7c.2 0 .4.1.6.2l5.3 6.7c.2.3.2.6 0 .9l-5.4 6.8c-.1.1-.3.2-.6.2H3.9zm16.5-7.9L15 4.8c-.2-.2-.6-.3-.9 0l-1.1.8c-.3.3-.4.7-.1 1l4.4 5.4-4.4 5.4c-.2.3-.2.8.1 1l1.1.9c.3.2.7.2.9-.1l5.4-6.7c.2-.4.2-.7 0-1z"/>
	</symbol>
	<symbol viewBox="0 0 24 24" id="broadcast">
		<path d="M.9 8.8c0 2.7 1.1 5.2 3 7.1.4.4 1 .4 1.4 0 .4-.5.4-1.1 0-1.5C3.8 12.9 3 10.9 3 8.8c0-2.2.8-4.2 2.3-5.7.4-.4.4-1 0-1.4-.4-.4-1-.4-1.4 0C2 3.6.9 6.1.9 8.8zm5.9 4.1c.4.4 1 .4 1.5 0 .4-.4.4-1 0-1.4-.7-.8-1.2-1.7-1.2-2.7 0-1.1.4-2 1.2-2.7.4-.4.4-1.1 0-1.5-.5-.4-1.1-.4-1.5 0-1.1 1.1-1.7 2.6-1.7 4.2 0 1.5.6 3 1.7 4.1zM20.1 1.7c-.4-.4-1.1-.4-1.5 0-.4.4-.4 1 0 1.4 1.5 1.5 2.3 3.5 2.4 5.7-.1 2.1-.9 4.1-2.4 5.6-.4.4-.4 1 0 1.5.4.4 1.1.4 1.5 0C22 14 23 11.5 23 8.8c0-2.7-1-5.2-2.9-7.1zm-1.2 7.1c0-1.6-.7-3.1-1.8-4.2-.4-.4-1-.4-1.4 0-.4.4-.4 1.1 0 1.5.7.7 1.1 1.6 1.1 2.7 0 1-.4 1.9-1.1 2.7-.4.4-.4 1 0 1.4.4.4 1 .4 1.4 0 1.1-1.1 1.8-2.6 1.8-4.1zM10.9 11.2c-1-.4-1.6-1.3-1.6-2.5C9.3 7.2 10.5 6 12 6c1.5 0 2.7 1.2 2.7 2.7 0 1.2-.7 2.1-1.7 2.5v10.9c0 .3-.2.5-.5.5h-1.1c-.2 0-.5-.2-.5-.5V11.2z"/>
	</symbol>
	<symbol viewBox="0 0 24 24" id="brush">
		<path d="M22.8 1.2c-1.6-1.6-10.3 3.4-15.7 12-.2.4-.1.9.3 1.1 1.2.6 2.2 1.6 2.7 2.8.2.5.7.6 1.1.3C19.5 12 24.4 2.9 22.8 1.2zm-17.3 15c-.7 0-1.3.4-1.8.9h-.1c-.2 0-.4.3-.6.7-.7 1.2-.9 2.7-2 4.3-.2.3-.1.7.2.8 1.6.5 4.4 0 5.8-1v.1c.4-.1.3-.3.4-.3.5-.9 1-1.4 1-2.3-.1-1.7-1.3-3.2-2.9-3.2z"/></symbol><symbol viewBox="0 0 24 24" id="bucket"><path d="M22.6 5.1c0-2.9-4.5-4.2-8.8-4.2S5.1 2.2 5.1 5.1v.2C1.1 6.5.5 9 .5 10.4c0 1.4.7 2.8 1.9 3.9 1 .8 2.3 1.3 3.6 1.4h.4c3-.1 5.9-1.1 6.8-2.7-.5-.4-.7-.9-.7-1.5 0-1 .8-1.8 1.8-1.8s1.9.8 1.9 1.8c0 .8-.5 1.5-1.2 1.7-.9 2.6-4.6 4.3-9 4.3v2.8c0 1.5 3.5 2.8 7.8 2.8s7.9-1.3 7.9-2.8V7.1c.6-.6.9-1.2.9-2zm-8.8-1.4c3.1 0 5 .7 5.8 1.2.1.1.1.3 0 .4-.8.5-2.7 1.2-5.8 1.2s-4.9-.7-5.7-1.2c-.1-.1-.1-.3 0-.4.8-.5 2.7-1.2 5.7-1.2zM3.6 12.8c-.8-.6-1.3-1.5-1.3-2.4 0-2 1.9-3 3.6-3.4l.1.1v6.7c-.9 0-1.8-.4-2.4-1z"/>
	</symbol>
	<symbol viewBox="0 0 24 24" id="builder">
		<path d="M5.3 7.8H1.6c-.4 0-.7.4-.7.7v11.8c0 1 .9 1.9 1.9 1.9h2.5c.4 0 .7-.4.7-.7v-13c0-.3-.3-.7-.7-.7zm17.1 0H8.5c-.3 0-.7.4-.7.7v13c0 .3.4.7.7.7h12.7c1 0 1.9-.9 1.9-1.9V8.5c0-.3-.3-.7-.7-.7zm-1.2-6H2.8c-1 0-1.9.9-1.9 1.9v1.6c0 .4.3.7.7.7h20.8c.4 0 .7-.3.7-.7V3.7c0-1-.9-1.9-1.9-1.9z"/></symbol><symbol viewBox="0 0 24 24" id="call"><path d="M22.4 17.5l-2.8-2.3c-.7-.5-1.6-.5-2.2 0L15 16.9c-.3.3-.7.2-1-.1l-3.6-3.2L7.2 10c-.3-.3-.3-.6-.1-1l1.7-2.4c.5-.6.5-1.5 0-2.2L6.5 1.6C5.8.8 4.6.7 3.8 1.5L1.4 3.9c-.4.3-.6.9-.6 1.4.3 4.7 2.4 9.1 5.5 12.3s7.6 5.2 12.3 5.5c.6 0 1.1-.2 1.4-.6l2.4-2.4c.9-.7.9-2 0-2.6z"/>
	</symbol>
	<symbol viewBox="0 0 24 24" id="campaign">
		<path d="M12 .4C5.6.4.4 5.6.4 12S5.6 23.6 12 23.6 23.6 18.4 23.6 12 18.4.4 12 .4zm0 20.9c-5.1 0-9.3-4.2-9.3-9.3S6.9 2.7 12 2.7s9.3 4.2 9.3 9.3-4.2 9.3-9.3 9.3zM12 5c-3.8 0-7 3.2-7 7s3.2 7 7 7 7-3.2 7-7-3.2-7-7-7zm0 11.7c-2.5 0-4.7-2.1-4.7-4.7S9.5 7.3 12 7.3s4.7 2.2 4.7 4.7-2.2 4.7-4.7 4.7zm0-7c-1.3 0-2.3 1.1-2.3 2.3s1.1 2.3 2.3 2.3 2.3-1.1 2.3-2.3-1-2.3-2.3-2.3z"/>
	</symbol>
	<symbol viewBox="0 0 24 24" id="cancel_file_request">
		<path d="M14.9 7h2.8c.2 0 .3-.2.2-.4l-3-2.9c-.1-.1-.3 0-.3.1v2.8c-.1.2.1.4.3.4zm-.1 5.2c.9-.9 2.1-1.4 3.3-1.6V8.8c0-.3-.1-.4-.4-.4h-3.9c-.4 0-.7-.3-.7-.7v-4c0-.2-.2-.3-.4-.3H7.9c-.3 0-.6.2-.6.5v1.5c0 .1.1.2.2.4l2 2c.2.2.5.6.5 1.1.1.5-.1 1.1-.5 1.5l-.5.5c-.2.2-.4.3-.6.4.2.1.6.2.8.2 1 .1 1.7.9 1.7 1.9v.8c0 .5-.2 1-.6 1.3-.4.4-.9.5-1.4.5-.4-.1-.7-.1-1.1-.2-.3-.1-.5.1-.5.4v1.1c0 .2.3.5.6.5h5.3c-.4-2 .1-4 1.6-5.6zm-5.3 1.9v-.8c0-.2-.2-.4-.4-.4C7.2 12.7 5.5 11 5.5 9v-.4c0-.2.3-.4.5-.2l1.4 1.4c.1.2.4.2.5 0l.6-.5c.1-.2.1-.4 0-.6L5 5.3c-.1-.2-.4-.2-.5 0L1 8.8c-.1.1-.1.4 0 .5l.6.6c.1.1.4.2.5 0l1.5-1.4c.2-.2.6-.1.6.2v.7c0 2.6 2.2 4.9 4.9 5.1.2 0 .4-.2.4-.4z"/>
		<path d="M21.9 13.3c-1.7-1.7-4.4-1.7-6.1 0-1.7 1.7-1.7 4.4 0 6.1 1.6 1.6 4.4 1.6 6.1 0 1.7-1.7 1.7-4.4 0-6.1zm-1.3 3.8c.2.1.2.4 0 .5l-.5.5c-.2.2-.3.2-.5 0l-.7-.7-.8.7c-.1.2-.3.2-.5 0l-.5-.5c-.2-.2-.2-.3-.1-.5l.8-.8-.7-.7c-.2-.2-.2-.4-.1-.5l.5-.5c.2-.2.5-.2.6-.1l.7.8.8-.8c.1-.1.4-.1.5 0l.5.5c.2.1.2.4 0 .6l-.8.7.8.8z"/>
	</symbol>
	<symbol viewBox="0 0 24 24" id="cancel_transfer">
		<path d="M12.6 15c-.5-.3-1.1-.6-1.7-.8-1.1-.4-1.3-.9-1.3-1.4 0-.4.3-.8.6-1.2.7-.6 1.1-1.5 1.1-2.5 0-1.9-1.2-3.3-3.3-3.3-2.1 0-3.2 1.4-3.2 3.3 0 1 .3 1.9 1 2.5.4.4.7.8.7 1.2 0 .5-.2.9-1.4 1.4-1.6.7-3.3 1.5-3.3 3 .1 1 .9 1.9 1.8 1.9h7.6c0-1.5.5-2.9 1.4-4.1zm-.2-10V3.6c1.9 0 3.3 1.5 3.3 3.3h-1.3l2.1 2.7c.1.1.3.1.4 0L19 6.9h-1.4c0-2.9-2.4-5.2-5.2-5.2V.3L9.7 2.4c-.1.1-.1.3.1.4L12.4 5zM20.8 15.7c-1.8-1.9-4.8-1.9-6.6 0s-1.9 4.8 0 6.6 4.8 1.9 6.6 0 1.9-4.8 0-6.6zm-1.4 4.1c.2.1.2.4 0 .6l-.6.6c-.1.1-.3.1-.5-.1l-.8-.8-.8.9c-.2.1-.4.1-.5-.1l-.6-.5c-.2-.2-.2-.4-.1-.6l.9-.8-.8-.9c-.2-.1-.2-.4-.1-.5l.6-.6c.1-.1.4-.2.6 0l.8.8.8-.8c.2-.2.4-.2.6-.1l.6.6c.1.1.1.4-.1.6l-.8.8.8.9z"/>
	</symbol>
	<symbol viewBox="0 0 24 24" id="capslock">
		<path d="M20.1 9.7l-7.5-8.5c-.3-.4-.9-.4-1.2 0L3.9 9.7c-.3.4-.1.9.4.9h3.5v5.8c0 .4.4.7.7.7h7c.3 0 .7-.3.7-.7v-5.8h3.5c.5 0 .7-.5.4-.9zm-4.6 10.1h-7c-.3 0-.7.4-.7.7v1.9c0 .4.4.7.7.7h7c.3 0 .7-.3.7-.7v-1.9c0-.3-.4-.7-.7-.7z"/>
	</symbol>
	<symbol viewBox="0 0 24 24" id="case">
		<title/>
		<path d="M7.9 5.2h1.4c.2 0 .3-.1.3-.3v-1h4.8v1c0 .2.1.3.3.3H16c.2 0 .3-.1.3-.3v-1c0-1.1-.9-2.1-2-2.1H9.6c-1.1 0-2 1-2 2.1v1c0 .2.1.3.3.3zm12.2 2H3.9c-1.1 0-2.1 1-2.1 2.1v10.8c0 1.1 1 2.1 2.1 2.1h16.2c1.1 0 2.1-1 2.1-2.1V9.3c0-1.1-1-2.1-2.1-2.1z"/>
	</symbol>
	<symbol viewBox="0 0 24 24" id="cases">
		<path d="M4.2 1.6c0-.4-.4-.7-.7-.7H1.6c-.4 0-.7.3-.7.7v14.3c0 .4.3.7.7.7h1.9c.3 0 .7-.3.7-.7V1.6zm18.9 0c0-.4-.3-.7-.7-.7h-1.9c-.3 0-.7.3-.7.7v14.3c0 .4.4.7.7.7h1.9c.4 0 .7-.3.7-.7V1.6zM17.3.9h-1.4c-.3 0-.7.4-.7.8v5.7c0 .2.1.3.3.4.8.4 1.5.9 2.1 1.5.1.2.4.1.4-.1V1.7c0-.4-.3-.8-.7-.8zM11.1 7h1.8c.3 0 .5-.2.5-.4V1.7c0-.4-.3-.8-.7-.8h-1.4c-.4 0-.7.4-.7.8v4.9c0 .2.2.5.5.4zM6.4 9.3c.6-.6 1.4-1.1 2.1-1.5.2-.1.3-.2.3-.4V1.7c0-.4-.4-.8-.7-.8H6.7c-.4 0-.7.4-.7.8v7.5c0 .2.2.3.4.1zm5.6-.5c-3.3 0-6 2.7-6 6 0 1 .3 2 .7 2.9L3.5 21c-.3.2-.3.6 0 .9l.9 1c.3.3.7.3 1 0l3.2-3.2c1 .7 2.2 1.1 3.4 1.1 3.3 0 6-2.7 6-6s-2.7-6-6-6zm0 9.2c-1.8 0-3.2-1.4-3.2-3.2s1.4-3.2 3.2-3.2 3.2 1.4 3.2 3.2S13.8 18 12 18z"/>
	</symbol>
	<symbol viewBox="0 0 24 24" id="center_align_text">
		<path d="M22.2 3c0-.4-.4-.7-.7-.7h-19c-.3 0-.7.3-.7.7v1.4c0 .4.4.7.7.7h19c.3 0 .7-.3.7-.7V3zm-2.8 5.5c0-.3-.3-.7-.7-.7H5.3c-.4 0-.7.4-.7.7v1.4c0 .4.3.7.7.7h13.4c.4 0 .7-.3.7-.7V8.5zm-.9 11.1c0-.4-.4-.7-.7-.7H6.2c-.3 0-.7.3-.7.7V21c0 .4.4.7.7.7h11.6c.3 0 .7-.3.7-.7v-1.4zm3.7-5.5c0-.4-.4-.7-.7-.7h-19c-.3 0-.7.3-.7.7v1.4c0 .3.4.7.7.7h19c.3 0 .7-.4.7-.7v-1.4z"/>
	</symbol>
	<symbol viewBox="0 0 24 24" id="change_owner">
		<path d="M12.6 17.4c-1.4-.6-1.6-1.1-1.6-1.7 0-.5.4-1 .8-1.4.8-.7 1.2-1.8 1.2-3 0-2.2-1.3-3.9-3.8-3.9s-3.8 1.7-3.8 3.9c0 1.2.3 2.3 1.2 3 .4.4.8.9.8 1.4 0 .6-.2 1.1-1.6 1.7-2.1.8-4 1.7-4 3.5 0 1.2 1 2.2 2.1 2.2h10.6c1.2 0 2.1-1 2.1-2.2 0-1.7-2-2.7-4-3.5zm7.9-8.6c0-3.4-2.8-6.3-6.2-6.3V.9l-3.1 2.6c-.2.1-.1.3 0 .5l3.1 2.5V4.8c2.2 0 3.9 1.8 3.9 4h-1.6l2.6 3.1c.1.1.3.1.5 0l2.5-3.1h-1.7z"/>
	</symbol>
	<symbol viewBox="0 0 24 24" id="change_record_type">
		<path d="M9.2 17.3c0-.4-.3-.7-.7-.7H1.6c-.4 0-.7.3-.7.7v5.1c0 .4.3.7.7.7h6.9c.4 0 .7-.3.7-.7v-5.1zm-5.5-7.1H1.5c-.5 0-.7.4-.4.6l3.7 3.8c.1.2.4.2.6 0l3.7-3.8c.3-.3 0-.6-.4-.6H6.5c0-2.4 2.3-4.7 4.6-4.7V2.8c-4.2 0-7.4 3.2-7.4 7.4zm15.6-.8c-.2-.2-.5-.2-.7 0L15 13.2c-.3.3-.1.6.4.6h2.2c0 2.8-1.9 4.7-4.7 4.7v2.7c4.2 0 7.5-3.2 7.5-7.4h2.2c.5 0 .7-.4.4-.6l-3.7-3.8zm3.8-7.8c0-.4-.3-.7-.7-.7h-6.9c-.4 0-.7.3-.7.7v5.1c0 .4.3.7.7.7h6.9c.4 0 .7-.3.7-.7V1.6z"/>
	</symbol>
	<symbol viewBox="0 0 24 24" id="chart">
		<path d="M21 10.8L11.5 16c-.6.3-1.3-.1-1.3-.8V3.9c0-.5-.5-.9-.9-.7-4.6 1.3-8 5.8-7.4 10.9.5 4.6 4.2 8.4 8.9 8.9 6.2.7 11.4-4.1 11.4-10.1 0-.5-.1-1.1-.2-1.6s-.6-.7-1-.5zm-8.2 2.1l9.1-4.8c.5-.3.7-1 .3-1.5-2-2.9-5.3-5-9-5.6-.6-.1-1.2.4-1.2 1v10.5c0 .4.4.6.8.4z"/>
	</symbol>
	<symbol viewBox="0 0 24 24" id="chat">
		<path d="M12 1.8C5.9 1.8 1 6.4 1 12c0 1.7.5 3.4 1.3 4.8.1.3.2.6.1.8l-1.4 4c-.2.3.2.6.6.6l3.9-1.6c.3-.1.5 0 .8.1 1.7.9 3.7 1.5 5.8 1.5 6 0 11-4.5 11-10.2C23 6.4 18.1 1.8 12 1.8zm-5.5 12c-1.1 0-1.9-.8-1.9-1.8s.8-1.8 1.9-1.8 1.8.8 1.8 1.8-.8 1.8-1.8 1.8zm5.5 0c-1 0-1.8-.8-1.8-1.8s.8-1.8 1.8-1.8 1.8.8 1.8 1.8-.8 1.8-1.8 1.8zm5.5 0c-1 0-1.8-.8-1.8-1.8s.8-1.8 1.8-1.8 1.9.8 1.9 1.8-.8 1.8-1.9 1.8z"/>
	</symbol>
</svg>